<svg width="81" height="23" viewBox="0 0 81 23" fill="none" xmlns="http://www.w3.org/2000/svg">
<g clip-path="url(#clip0_2103_3439)">
<path d="M13.9923 11.4451C13.9923 13.6964 12.3629 15.5214 10.3531 15.5214C8.34326 15.5214 6.71387 13.6964 6.71387 11.4451C6.71387 9.19405 8.34326 7.36938 10.3531 7.36938C12.3629 7.36938 13.9923 9.19405 13.9923 11.4451Z" fill="#D8232A"/>
<path d="M6.15254 15.5212C4.14115 15.5212 2.51123 13.6965 2.51123 11.4458C2.51123 9.19441 4.14115 7.36768 6.15228 7.36768L6.15254 15.5212Z" fill="#D8232A"/>
<path d="M14.5566 20.0182L14.5574 16.1504L18.0123 16.1522C18.0123 18.2903 16.4648 20.0182 14.5566 20.0182Z" fill="#D8232A"/>
<path d="M6.15226 2.86816V6.74072L2.69287 6.7413C2.69287 4.6026 4.24223 2.86816 6.15226 2.86816Z" fill="#D8232A"/>
<path d="M6.15271 20.0206V16.1504L2.69385 16.1522C2.69385 18.29 4.24162 20.0206 6.15271 20.0206Z" fill="#D8232A"/>
<path d="M18.7616 14.9481L18.7598 7.94287C19.8252 8.65351 20.539 9.95596 20.539 11.4457C20.539 12.9348 19.8252 14.236 18.7616 14.9481Z" fill="#D8232A"/>
<path d="M7.22705 2.02988L13.4819 2.03106C12.8471 0.837718 11.6856 0.0397949 10.3552 0.0397949C9.0252 0.0397949 7.8618 0.837718 7.22705 2.02988Z" fill="#D8232A"/>
<path d="M13.436 20.8605L7.18018 20.8596C7.81519 22.0524 8.97753 22.8521 10.3081 22.8521C11.6382 22.8521 12.8005 22.0533 13.436 20.8605Z" fill="#D8232A"/>
<path d="M13.9936 16.1521C13.9936 18.404 12.3647 20.2284 10.3552 20.2284C8.34457 20.2284 6.71387 18.404 6.71387 16.1521H13.9936Z" fill="#D8232A"/>
<path d="M14.5576 15.5212C16.5674 15.5212 18.1981 13.6965 18.1981 11.4458C18.1981 9.19441 16.5674 7.36768 14.5576 7.36768V15.5212Z" fill="#D8232A"/>
<path d="M13.9936 6.7454C13.9936 4.49434 12.3647 2.66968 10.3552 2.66968C8.34457 2.66968 6.71387 4.49434 6.71387 6.7454H13.9936Z" fill="#D8232A"/>
<path d="M1.94843 14.9481L1.95001 7.94287C0.884289 8.65351 0.171875 9.95596 0.171875 11.4457C0.171875 12.9348 0.884289 14.236 1.94843 14.9481Z" fill="#D8232A"/>
<path d="M18.0126 6.7429L14.5574 6.74084L14.5566 2.87183C16.4651 2.87183 18.0126 4.6042 18.0126 6.7429Z" fill="#D8232A"/>
<path d="M34.1939 22.8454C28.3985 22.8454 24.0942 17.8355 24.0942 11.5023V11.4392C24.0942 5.16904 28.3142 0.032959 34.3626 0.032959C38.0758 0.032959 40.2984 1.41945 42.127 3.43607L39.3701 6.99636C37.851 5.4527 36.3037 4.50734 34.3345 4.50734C31.0149 4.50734 28.6236 7.59524 28.6236 11.3764V11.4392C28.6236 15.2203 30.9585 18.3713 34.3345 18.3713C36.5849 18.3713 37.9637 17.3629 39.5109 15.7874L42.2676 18.9068C40.2423 21.333 37.9916 22.8454 34.1939 22.8454Z" fill="#1A1919"/>
<path d="M56.5774 15.9038C56.5774 14.3723 55.5593 13.4272 53.2604 13.4272H48.0813V18.4459H53.406C55.3847 18.4459 56.5774 17.6636 56.5774 15.9693V15.9038ZM55.4427 6.77904C55.4427 5.27991 54.3954 4.43274 52.504 4.43274H48.0813V9.25566H52.2131C54.1916 9.25566 55.4427 8.53883 55.4427 6.8442V6.77904ZM53.406 22.8454H43.7168V0.032959H53.1733C57.334 0.032959 59.8946 2.34682 59.8946 5.93187V5.99704C59.8946 8.57156 58.6725 10.0052 57.2176 10.9179C59.5745 11.9281 61.0293 13.4597 61.0293 16.5234V16.5885C61.0293 20.7598 58.0033 22.8454 53.406 22.8454Z" fill="#1A1919"/>
<path d="M72.3743 22.8454C66.5791 22.8454 62.2749 17.8355 62.2749 11.5023V11.4392C62.2749 5.16904 66.4946 0.032959 72.5433 0.032959C76.2565 0.032959 78.479 1.41945 80.3077 3.43607L77.5507 6.99636C76.0314 5.4527 74.4841 4.50734 72.5149 4.50734C69.1955 4.50734 66.8042 7.59524 66.8042 11.3764V11.4392C66.8042 15.2203 69.1392 18.3713 72.5149 18.3713C74.7656 18.3713 76.1441 17.3629 77.6913 15.7874L80.4483 18.9068C78.423 21.333 76.172 22.8454 72.3743 22.8454Z" fill="#1A1919"/>
</g>
<defs>
<clipPath id="clip0_2103_3439">
<rect width="81" height="23" fill="white"/>
</clipPath>
</defs>
</svg>
