<svg width="16" height="16" viewBox="0 0 16 16" fill="none" xmlns="http://www.w3.org/2000/svg">
<path d="M10.3979 8.0688C10.3979 9.46415 9.28999 10.5952 7.92334 10.5952C6.55669 10.5952 5.44873 9.46415 5.44873 8.0688C5.44873 6.67363 6.55669 5.54272 7.92334 5.54272C9.28999 5.54272 10.3979 6.67363 10.3979 8.0688Z" fill="#D8232A"/>
<path d="M5.06686 10.5952C3.69914 10.5952 2.59082 9.46427 2.59082 8.06928C2.59082 6.67393 3.69914 5.54175 5.06668 5.54175L5.06686 10.5952Z" fill="#D8232A"/>
<path d="M10.7817 13.3823L10.7823 10.9851L13.1316 10.9862C13.1316 12.3114 12.0793 13.3823 10.7817 13.3823Z" fill="#D8232A"/>
<path d="M5.06669 2.75269V5.15284L2.71436 5.1532C2.71436 3.82766 3.76789 2.75269 5.06669 2.75269Z" fill="#D8232A"/>
<path d="M5.06731 13.3838V10.9851L2.71533 10.9862C2.71533 12.3112 3.7678 13.3838 5.06731 13.3838Z" fill="#D8232A"/>
<path d="M13.6409 10.24L13.6396 5.89819C14.3641 6.33864 14.8495 7.14588 14.8495 8.06917C14.8495 8.99209 14.3641 9.7986 13.6409 10.24Z" fill="#D8232A"/>
<path d="M5.79785 2.23343L10.051 2.23416C9.61942 1.49454 8.82957 1 7.92498 1C7.02057 1 6.22947 1.49454 5.79785 2.23343Z" fill="#D8232A"/>
<path d="M10.0195 13.9044L5.76562 13.9038C6.19742 14.6431 6.9878 15.1387 7.89258 15.1387C8.79699 15.1387 9.58737 14.6436 10.0195 13.9044Z" fill="#D8232A"/>
<path d="M10.3988 10.9861C10.3988 12.3818 9.29124 13.5125 7.92477 13.5125C6.55759 13.5125 5.44873 12.3818 5.44873 10.9861H10.3988Z" fill="#D8232A"/>
<path d="M10.7822 10.5952C12.1489 10.5952 13.2577 9.46427 13.2577 8.06928C13.2577 6.67393 12.1489 5.54175 10.7822 5.54175V10.5952Z" fill="#D8232A"/>
<path d="M10.3988 5.1562C10.3988 3.76103 9.29124 2.63013 7.92477 2.63013C6.55759 2.63013 5.44873 3.76103 5.44873 5.1562H10.3988Z" fill="#D8232A"/>
<path d="M2.20803 10.24L2.20911 5.89819C1.48443 6.33864 1 7.14588 1 8.06917C1 8.99209 1.48443 9.7986 2.20803 10.24Z" fill="#D8232A"/>
<path d="M13.1317 5.15437L10.7823 5.15309L10.7817 2.75513C12.0795 2.75513 13.1317 3.82883 13.1317 5.15437Z" fill="#D8232A"/>
</svg>
