<svg width="467" height="64" viewBox="0 0 467 64" fill="none" xmlns="http://www.w3.org/2000/svg">
<g clip-path="url(#clip0_2094_1737)">
<path d="M131.374 41.664C137.438 41.664 142.354 36.7994 142.354 30.7987C142.354 24.798 137.438 19.9335 131.374 19.9335C125.309 19.9335 120.394 24.798 120.394 30.7987C120.394 36.7994 125.309 41.664 131.374 41.664Z" fill="white"/>
<path d="M118.7 41.664C115.839 41.5887 113.121 40.4113 111.125 38.3826C109.129 36.3539 108.012 33.6342 108.012 30.8026C108.012 27.971 109.129 25.2512 111.125 23.2225C113.121 21.1939 115.839 20.0165 118.7 19.9412V41.664Z" fill="white"/>
<path d="M144.04 53.6443V43.3403H154.461C154.461 44.6941 154.191 46.0346 153.667 47.2852C153.143 48.5359 152.376 49.6721 151.408 50.629C150.44 51.5859 149.291 52.3448 148.027 52.8621C146.763 53.3795 145.408 53.6453 144.04 53.6443Z" fill="white"/>
<path d="M118.7 7.94556V18.2649H108.264C108.264 16.9091 108.534 15.5666 109.058 14.3141C109.583 13.0616 110.352 11.9236 111.321 10.9653C112.29 10.007 113.44 9.247 114.707 8.72886C115.973 8.21072 117.33 7.94455 118.7 7.94556Z" fill="white"/>
<path d="M118.7 53.6442V43.3403H108.271C108.271 44.6948 108.541 46.0359 109.066 47.287C109.59 48.5382 110.358 49.6747 111.327 50.6317C112.295 51.5888 113.445 52.3474 114.71 52.8643C115.975 53.3812 117.331 53.6463 118.7 53.6442Z" fill="white"/>
<path d="M156.722 40.1338V21.4714C158.358 22.4331 159.713 23.7993 160.654 25.436C161.596 27.0726 162.091 28.9233 162.091 30.8065C162.091 32.6896 161.596 34.5404 160.654 36.177C159.713 37.8136 158.358 39.1798 156.722 40.1415V40.1338Z" fill="white"/>
<path d="M121.94 5.71567H140.807C139.834 4.09849 138.453 2.75926 136.799 1.8292C135.145 0.899142 133.276 0.410156 131.374 0.410156C129.471 0.410156 127.602 0.899142 125.948 1.8292C124.294 2.75926 122.913 4.09849 121.94 5.71567Z" fill="white"/>
<path d="M140.668 55.8896H121.8C122.772 57.5087 124.153 58.8498 125.807 59.7813C127.461 60.7127 129.331 61.2025 131.234 61.2025C133.137 61.2025 135.007 60.7127 136.661 59.7813C138.315 58.8498 139.696 57.5087 140.668 55.8896Z" fill="white"/>
<path d="M142.346 43.3403C142.385 44.791 142.13 46.2347 141.596 47.5862C141.062 48.9377 140.259 50.1697 139.236 51.2094C138.213 52.2491 136.99 53.0754 135.639 53.6397C134.288 54.2039 132.836 54.4946 131.37 54.4946C129.903 54.4946 128.451 54.2039 127.1 53.6397C125.749 53.0754 124.526 52.2491 123.503 51.2094C122.48 50.1697 121.678 48.9377 121.144 47.5862C120.61 46.2347 120.355 44.791 120.394 43.3403H142.346Z" fill="white"/>
<path d="M144.048 41.664C146.908 41.5887 149.626 40.4113 151.622 38.3826C153.619 36.3539 154.736 33.6342 154.736 30.8026C154.736 27.971 153.619 25.2512 151.622 23.2225C149.626 21.1939 146.908 20.0165 144.048 19.9412V41.664Z" fill="white"/>
<path d="M142.346 18.2802C142.385 16.8296 142.13 15.3859 141.596 14.0344C141.062 12.6829 140.259 11.4509 139.236 10.4112C138.213 9.37152 136.99 8.54516 135.639 7.98092C134.288 7.41668 132.836 7.12598 131.37 7.12598C129.903 7.12598 128.451 7.41668 127.1 7.98092C125.749 8.54516 124.526 9.37152 123.503 10.4112C122.48 11.4509 121.678 12.6829 121.144 14.0344C120.61 15.3859 120.355 16.8296 120.394 18.2802H142.346Z" fill="white"/>
<path d="M106.018 40.1338V21.4714C104.382 22.4331 103.026 23.7993 102.085 25.436C101.144 27.0726 100.649 28.9233 100.649 30.8065C100.649 32.6896 101.144 34.5404 102.085 36.177C103.026 37.8136 104.382 39.1798 106.018 40.1415V40.1338Z" fill="white"/>
<path d="M154.468 18.2725H144.048V7.96094C146.812 7.96094 149.462 9.04734 151.416 10.9811C153.37 12.9149 154.468 15.5377 154.468 18.2725Z" fill="white"/>
<path d="M183.888 15.4352H190.548C197.161 15.4352 205.048 15.2199 205.048 23.6783C205.082 25.4305 204.447 27.1309 203.27 28.4406C202.094 29.7504 200.462 30.5731 198.699 30.745V30.8296C200.378 30.9603 201.341 32.6212 201.963 33.9669L206.897 45.8702H200.02L196.321 36.3737C195.435 34.1053 194.643 33.2364 192.047 33.2364H190.066V45.8856H183.888V15.4352ZM190.058 28.4304H192.086C195.125 28.4304 198.614 27.9921 198.614 24.2012C198.614 20.5333 195.179 20.2334 192.086 20.2334H190.058V28.4304Z" fill="white"/>
<path d="M211.823 24.601C214.314 23.5171 216.998 22.9392 219.719 22.9016C226.634 22.9016 229.502 25.739 229.502 32.3674V35.2432C229.502 37.5116 229.548 39.211 229.587 40.872C229.626 42.5329 229.719 44.14 229.851 45.8855H224.653C224.495 44.7719 224.407 43.6496 224.389 42.5252H224.295C223.565 43.7095 222.537 44.6862 221.311 45.36C220.085 46.0338 218.704 46.3818 217.302 46.3699C213.292 46.3699 209.368 43.9708 209.368 39.6955C209.284 38.363 209.61 37.0367 210.304 35.8917C210.998 34.7467 212.026 33.8369 213.253 33.2824C215.499 32.1905 218.405 31.9752 220.876 31.9752H224.132C224.132 28.3535 222.508 27.1308 219.019 27.1308C216.475 27.1998 214.021 28.0759 212.018 29.6299L211.823 24.601ZM218.747 42.133C219.551 42.1523 220.347 41.98 221.069 41.6307C221.792 41.2814 222.418 40.7654 222.897 40.1261C223.805 38.7627 224.237 37.1418 224.124 35.5124H221.568C218.926 35.5124 215.002 35.9507 215.002 39.3571C214.994 41.3026 216.626 42.133 218.747 42.133Z" fill="white"/>
<path d="M250.428 43.3557H250.343C249.505 44.3779 248.434 45.1895 247.219 45.7241C246.003 46.2586 244.677 46.501 243.349 46.4315C236.356 46.4315 233.83 40.7643 233.83 34.6127C233.83 28.4611 236.387 22.9247 243.349 22.9247C244.653 22.8647 245.953 23.1189 247.136 23.6653C248.319 24.2118 249.35 25.0342 250.141 26.062H250.226V13.1667H256.14V45.8855H250.405L250.428 43.3557ZM244.989 41.8716C248.874 41.8716 250.187 37.7731 250.187 34.5897C250.187 31.4062 248.688 27.4384 244.896 27.4384C241.103 27.4384 240 31.5831 240 34.5897C240 37.5963 241.127 41.8716 245.004 41.8716H244.989Z" fill="white"/>
<path d="M262.356 23.4169H268.262V45.8856H262.356V23.4169ZM262.356 13.7358H268.262V19.3184H262.356V13.7358Z" fill="white"/>
<path d="M284.876 22.894C291.621 22.894 296.78 27.3847 296.78 34.8051C296.78 41.2565 292.413 46.4085 284.876 46.4085C277.338 46.4085 273.018 41.2565 273.018 34.8051C273.018 27.3847 278.17 22.894 284.876 22.894ZM284.876 41.8717C289.421 41.8717 290.61 37.8578 290.61 34.1053C290.61 30.6604 288.761 27.4308 284.876 27.4308C280.99 27.4308 279.188 30.745 279.188 34.1053C279.188 37.8117 280.4 41.8717 284.876 41.8717Z" fill="white"/>
<path d="M299.889 36.5506V31.7523H311.483V36.5506H299.889Z" fill="white"/>
<path d="M338.975 45.4473C336.688 46.0281 334.342 46.3506 331.981 46.4085C322.019 46.4085 315.104 41.4795 315.104 31.1833C315.104 20.7564 321.538 14.9124 331.981 14.9124C334.369 14.9222 336.737 15.3491 338.975 16.1734L338.532 21.3177C336.506 20.1863 334.205 19.6277 331.88 19.7029C325.532 19.7029 321.569 24.5011 321.569 30.7373C321.569 36.9735 325.454 41.5949 332.013 41.5949C334.297 41.6205 336.564 41.1944 338.68 40.3415L338.975 45.4473Z" fill="white"/>
<path d="M343.987 24.6011C346.479 23.5132 349.167 22.9326 351.89 22.894C358.814 22.894 361.673 25.7315 361.673 32.3598V35.2434C361.673 37.5118 361.72 39.2111 361.766 40.8721C361.813 42.533 361.899 44.1401 362.031 45.8856H356.832C356.676 44.7718 356.588 43.6497 356.568 42.5253H356.482C355.752 43.7096 354.724 44.6863 353.498 45.3601C352.272 46.0339 350.891 46.3819 349.489 46.3701C345.479 46.3701 341.555 43.9709 341.555 39.6956C341.471 38.3632 341.797 37.0368 342.491 35.8918C343.185 34.7468 344.213 33.837 345.44 33.2825C347.686 32.1906 350.6 31.9753 353.063 31.9753H356.327C356.327 28.3536 354.695 27.131 351.214 27.131C348.679 27.1866 346.228 28.0435 344.22 29.5762L343.987 24.6011ZM350.903 42.1331C351.705 42.1505 352.5 41.9774 353.221 41.6282C353.941 41.279 354.567 40.7639 355.045 40.1262C355.956 38.7637 356.39 37.1428 356.28 35.5125H353.724C351.074 35.5125 347.158 35.9508 347.158 39.3572C347.165 41.3027 348.782 42.1331 350.911 42.1331H350.903Z" fill="white"/>
<path d="M367.47 23.4168H373.065V26.4926H373.151C375.008 23.9166 377.518 22.917 380.603 22.917C385.98 22.917 388.319 26.6695 388.319 31.7291V45.8855H382.413V33.8899C382.413 31.1447 382.367 27.4384 378.582 27.4384C374.308 27.4384 373.384 32.0521 373.384 34.8972V45.8855H367.478L367.47 23.4168Z" fill="white"/>
<path d="M395.406 24.601C397.893 23.5179 400.575 22.94 403.293 22.9016C410.217 22.9016 413.076 25.739 413.076 32.3674V35.2432C413.076 37.5116 413.123 39.211 413.162 40.872C413.201 42.5329 413.294 44.14 413.434 45.8855H408.227C408.07 44.7718 407.981 43.6496 407.963 42.5252H407.878C407.147 43.7095 406.119 44.6862 404.893 45.36C403.667 46.0338 402.286 46.3818 400.884 46.3699C396.874 46.3699 392.95 43.9708 392.95 39.6955C392.867 38.3632 393.194 37.0373 393.888 35.8925C394.581 34.7477 395.609 33.8377 396.835 33.2824C399.089 32.1905 401.995 31.9752 404.459 31.9752H407.722C407.722 28.3535 406.09 27.1308 402.609 27.1308C400.074 27.186 397.623 28.0429 395.615 29.5761L395.406 24.601ZM402.329 42.133C403.132 42.1511 403.927 41.9782 404.647 41.6289C405.368 41.2797 405.994 40.7643 406.471 40.1261C407.384 38.7643 407.818 37.1428 407.707 35.5124H405.15C402.508 35.5124 398.584 35.9507 398.584 39.3571C398.584 41.3026 400.216 42.133 402.329 42.133Z" fill="white"/>
<path d="M434.011 43.3557H433.925C433.088 44.3784 432.017 45.1903 430.802 45.7249C429.586 46.2595 428.26 46.5017 426.932 46.4315C419.938 46.4315 417.413 40.7643 417.413 34.6127C417.413 28.4611 419.969 22.9247 426.932 22.9247C428.235 22.866 429.532 23.1208 430.714 23.6672C431.895 24.2136 432.925 25.0353 433.715 26.062H433.809V13.1667H439.714V45.8855H433.987L434.011 43.3557ZM428.571 41.8716C432.457 41.8716 433.77 37.7731 433.77 34.5897C433.77 31.4062 432.27 27.4384 428.478 27.4384C424.686 27.4384 423.583 31.5831 423.583 34.5897C423.583 37.5963 424.709 41.8716 428.595 41.8716H428.571Z" fill="white"/>
<path d="M446.825 24.601C449.312 23.5179 451.994 22.94 454.712 22.9016C461.636 22.9016 464.495 25.739 464.495 32.3674V35.2432C464.495 37.5116 464.542 39.211 464.581 40.872C464.619 42.5329 464.713 44.14 464.845 45.8855H459.646C459.488 44.7719 459.4 43.6496 459.382 42.5252H459.297C458.566 43.7095 457.538 44.6862 456.312 45.36C455.086 46.0338 453.705 46.3818 452.303 46.3699C448.247 46.4084 444.361 44.0093 444.361 39.7339C444.278 38.4017 444.605 37.0758 445.299 35.931C445.992 34.7862 447.02 33.8762 448.247 33.3209C450.492 32.229 453.399 32.0137 455.87 32.0137H459.126C459.126 28.3919 457.494 27.1693 454.012 27.1693C451.477 27.2255 449.027 28.0823 447.019 29.6145L446.825 24.601ZM453.741 42.133C454.543 42.1511 455.338 41.9782 456.059 41.6289C456.779 41.2797 457.405 40.7643 457.882 40.1261C458.795 38.7641 459.229 37.1428 459.118 35.5124H456.561C453.919 35.5124 449.995 35.9507 449.995 39.3571C449.995 41.3026 451.627 42.133 453.748 42.133H453.741Z" fill="white"/>
<path d="M24.5501 45.5395C22.2631 46.1204 19.9169 46.4429 17.5565 46.5007C7.57895 46.5007 0.655273 41.5717 0.655273 31.2755C0.655273 20.8485 7.0894 15.0199 17.541 15.0199C19.929 15.0302 22.2964 15.4571 24.5346 16.281L24.0917 21.4252C22.0633 20.2932 19.7596 19.7346 17.4322 19.8105C11.0835 19.8105 7.12048 24.6087 7.12048 30.8449C7.12048 37.081 11.0058 41.7101 17.5643 41.7101C19.876 41.7412 22.1703 41.3096 24.3092 40.4414L24.5501 45.5395Z" fill="white"/>
<path d="M29.0728 15.5275H39.8274C43.7982 15.5275 49.7428 16.6578 49.7428 23.3323C49.7428 26.954 47.2717 29.4839 43.6195 30.1375V30.2221C47.8079 30.6142 50.6753 33.4055 50.6753 37.1426C50.6753 44.8321 43.6816 45.9548 39.7963 45.9548H29.0728V15.5275ZM35.2427 41.1642H38.1489C41.0163 41.1642 44.4976 40.4645 44.4976 36.935C44.4976 32.9672 41.2339 32.3213 38.1489 32.3213H35.2427V41.1642ZM35.2427 27.8153H37.7526C40.3558 27.8153 43.5728 27.2463 43.5728 24.1089C43.5728 20.5795 40.4646 20.318 37.6205 20.318H35.2427V27.8153Z" fill="white"/>
<path d="M78.3622 45.5395C76.0752 46.1204 73.729 46.4429 71.3686 46.5007C61.4066 46.5007 54.4829 41.5717 54.4829 31.2755C54.4985 20.8485 60.9326 15.0199 71.3686 15.0199C73.7566 15.0302 76.124 15.4571 78.3622 16.281L77.9193 21.4252C75.891 20.2932 73.5872 19.7346 71.2598 19.8105C64.9112 19.8105 60.9481 24.6087 60.9481 30.8449C60.9481 37.081 64.8101 41.7024 71.3686 41.7024C73.6803 41.7333 75.9745 41.3017 78.1136 40.4337L78.3622 45.5395Z" fill="white"/>
</g>
<defs>
<clipPath id="clip0_2094_1737">
<rect width="466" height="63" fill="white" transform="translate(0.655273 0.409912)"/>
</clipPath>
</defs>
</svg>
