<svg width="71" height="19" viewBox="0 0 71 19" fill="none" xmlns="http://www.w3.org/2000/svg">
<g clip-path="url(#clip0_2094_301)">
<path d="M12.2646 9.7871C12.2646 11.549 10.8364 12.9773 9.07469 12.9773C7.313 12.9773 5.88477 11.549 5.88477 9.7871C5.88477 8.02541 7.313 6.59741 9.07469 6.59741C10.8364 6.59741 12.2646 8.02541 12.2646 9.7871Z" fill="#D8232A"/>
<path d="M5.39294 12.9772C3.62986 12.9772 2.20117 11.5492 2.20117 9.78773C2.20117 8.02581 3.62986 6.59619 5.39271 6.59619L5.39294 12.9772Z" fill="#D8232A"/>
<path d="M12.7598 16.4965L12.7605 13.4695L15.7888 13.4709C15.7888 15.1442 14.4324 16.4965 12.7598 16.4965Z" fill="#D8232A"/>
<path d="M5.39266 3.07471V6.1054L2.36035 6.10586C2.36035 4.43209 3.71843 3.07471 5.39266 3.07471Z" fill="#D8232A"/>
<path d="M5.39317 16.4983V13.4695L2.36133 13.4709C2.36133 15.1439 3.71802 16.4983 5.39317 16.4983Z" fill="#D8232A"/>
<path d="M16.4455 12.5288L16.4438 7.04639C17.3778 7.60254 18.0034 8.62185 18.0034 9.78769C18.0034 10.9531 17.3778 11.9715 16.4455 12.5288Z" fill="#D8232A"/>
<path d="M6.33496 2.41879L11.8176 2.41971C11.2612 1.48579 10.243 0.861328 9.07696 0.861328C7.91111 0.861328 6.89135 1.48579 6.33496 2.41879Z" fill="#D8232A"/>
<path d="M11.777 17.1557L6.29346 17.155C6.85007 18.0885 7.86892 18.7143 9.03523 18.7143C10.2011 18.7143 11.2199 18.0892 11.777 17.1557Z" fill="#D8232A"/>
<path d="M12.2658 13.4709C12.2658 15.2333 10.838 16.6611 9.07653 16.6611C7.31415 16.6611 5.88477 15.2333 5.88477 13.4709H12.2658Z" fill="#D8232A"/>
<path d="M12.7603 12.9772C14.5219 12.9772 15.9513 11.5492 15.9513 9.78773C15.9513 8.02581 14.5219 6.59619 12.7603 6.59619V12.9772Z" fill="#D8232A"/>
<path d="M12.2658 6.10913C12.2658 4.34743 10.838 2.91943 9.07653 2.91943C7.31415 2.91943 5.88477 4.34743 5.88477 6.10913H12.2658Z" fill="#D8232A"/>
<path d="M1.70762 12.5288L1.70901 7.04639C0.774852 7.60254 0.150391 8.62185 0.150391 9.78769C0.150391 10.9531 0.774852 11.9715 1.70762 12.5288Z" fill="#D8232A"/>
<path d="M15.7891 6.10718L12.7605 6.10556L12.7598 3.07764C14.4326 3.07764 15.7891 4.43341 15.7891 6.10718Z" fill="#D8232A"/>
<path d="M29.9724 18.7092C24.8925 18.7092 21.1196 14.7884 21.1196 9.83196V9.78257C21.1196 4.87549 24.8186 0.855957 30.1203 0.855957C33.3751 0.855957 35.3232 1.94103 36.9262 3.51926L34.5096 6.30557C33.178 5.0975 31.8218 4.35765 30.0956 4.35765C27.1859 4.35765 25.0898 6.77426 25.0898 9.73342V9.78257C25.0898 12.7417 27.1365 15.2077 30.0956 15.2077C32.0682 15.2077 33.2768 14.4185 34.633 13.1855L37.0494 15.6268C35.2741 17.5256 33.3012 18.7092 29.9724 18.7092Z" fill="#1A1919"/>
<path d="M49.5922 13.2766C49.5922 12.078 48.6998 11.3384 46.6847 11.3384H42.145V15.2661H46.8123C48.5468 15.2661 49.5922 14.6539 49.5922 13.3279V13.2766ZM48.5976 6.1355C48.5976 4.96227 47.6796 4.29926 46.0217 4.29926H42.145V8.07373H45.7667C47.501 8.07373 48.5976 7.51273 48.5976 6.1865V6.1355ZM46.8123 18.7092H38.3193V0.855957H46.6083C50.2554 0.855957 52.4999 2.6668 52.4999 5.4725V5.5235C52.4999 7.53834 51.4286 8.66034 50.1534 9.37457C52.2193 10.1652 53.4945 11.3638 53.4945 13.7615V13.8125C53.4945 17.077 50.842 18.7092 46.8123 18.7092Z" fill="#1A1919"/>
<path d="M63.4395 18.7092C58.3598 18.7092 54.5869 14.7884 54.5869 9.83196V9.78257C54.5869 4.87549 58.2857 0.855957 63.5876 0.855957C66.8424 0.855957 68.7905 1.94103 70.3935 3.51926L67.9768 6.30557C66.6451 5.0975 65.2888 4.35765 63.5627 4.35765C60.6531 4.35765 58.5571 6.77426 58.5571 9.73342V9.78257C58.5571 12.7417 60.6038 15.2077 63.5627 15.2077C65.5355 15.2077 66.7438 14.4185 68.1001 13.1855L70.5167 15.6268C68.7414 17.5256 66.7683 18.7092 63.4395 18.7092Z" fill="#1A1919"/>
</g>
<defs>
<clipPath id="clip0_2094_301">
<rect width="71" height="18" fill="white" transform="translate(0 0.830078)"/>
</clipPath>
</defs>
</svg>
