<svg width="17" height="17" viewBox="0 0 17 17" fill="none" xmlns="http://www.w3.org/2000/svg">
<g clip-path="url(#clip0_2114_24)">
<path d="M10.8854 8.9201H5.91042C5.77781 8.9201 5.65063 8.97278 5.55686 9.06655C5.4631 9.16032 5.41042 9.2875 5.41042 9.4201C5.41042 9.55271 5.4631 9.67989 5.55686 9.77366C5.65063 9.86743 5.77781 9.9201 5.91042 9.9201H10.9104C11.043 9.9201 11.1702 9.86743 11.264 9.77366C11.3577 9.67989 11.4104 9.55271 11.4104 9.4201C11.4104 9.2875 11.3577 9.16032 11.264 9.06655C11.1702 8.97278 11.043 8.9201 10.9104 8.9201H10.8854ZM11.8854 5.9201H4.91042C4.77781 5.9201 4.65063 5.97278 4.55686 6.06655C4.4631 6.16032 4.41042 6.2875 4.41042 6.4201C4.41042 6.55271 4.4631 6.67989 4.55686 6.77366C4.65063 6.86743 4.77781 6.9201 4.91042 6.9201H11.9104C12.043 6.9201 12.1702 6.86743 12.264 6.77366C12.3577 6.67989 12.4104 6.55271 12.4104 6.4201C12.4104 6.2875 12.3577 6.16032 12.264 6.06655C12.1702 5.97278 12.043 5.9201 11.9104 5.9201H11.8854ZM8.41042 0.420105C3.98042 0.420105 0.410417 3.55011 0.410417 7.4201C0.393558 8.51094 0.661386 9.58732 1.18748 10.5431C1.71357 11.4988 2.47975 12.3008 3.41042 12.8701V16.4051L6.91042 14.2801C7.40625 14.362 7.90787 14.4038 8.41042 14.4051C12.8204 14.4051 16.4104 11.2801 16.4104 7.40511C16.4104 3.53011 12.8004 0.420105 8.41042 0.420105ZM8.41042 13.3951C7.84385 13.3922 7.27912 13.3302 6.72542 13.2101L4.37542 14.6201L4.40542 12.3051C3.52465 11.8214 2.78518 11.1165 2.25997 10.2599C1.73476 9.40321 1.44195 8.42444 1.41042 7.4201C1.41042 4.10011 4.53042 1.4201 8.41042 1.4201C12.2904 1.4201 15.4104 4.10011 15.4104 7.4201C15.4104 10.7401 12.2804 13.4201 8.41042 13.4201V13.3951Z" fill="#0550C8"/>
</g>
<defs>
<clipPath id="clip0_2114_24">
<rect width="16" height="16" fill="white" transform="translate(0.409668 0.420105)"/>
</clipPath>
</defs>
</svg>
