<svg width="82" height="20" viewBox="0 0 82 20" fill="none" xmlns="http://www.w3.org/2000/svg">
<g clip-path="url(#clip0_2094_328)">
<path d="M14.594 0.008H16.776V19.845H14.991L2.182 3.579V19.845H0V0.008H2.097L14.594 15.906V0.008ZM35.385 2.048H23.285V8.821H34.11V10.861H23.285V17.804H35.527V19.844H21.047V0.009H35.385V2.048ZM51.183 0.012H53.006L58.394 16.426L64.029 0.013H66.357L59.32 19.849H57.44L52.052 3.912L46.637 19.849H44.785L37.751 0.013H40.164L45.796 16.426L51.183 0.012ZM74.94 8.872C79.238 9.808 81.223 11.379 81.223 14.354C81.223 17.688 78.467 19.837 74.638 19.837C71.579 19.837 69.072 18.817 66.758 16.751L68.108 15.153C70.119 16.972 72.048 17.881 74.72 17.881C77.31 17.881 79.018 16.531 79.018 14.575C79.018 12.756 78.054 11.737 74.004 10.883C69.568 9.918 67.529 8.486 67.529 5.29C67.529 2.204 70.202 0 73.866 0C76.676 0 78.688 0.799 80.644 2.37L79.376 4.05C77.586 2.59 75.795 1.956 73.811 1.956C71.304 1.956 69.706 3.334 69.706 5.097C69.706 6.943 70.696 7.962 74.94 8.872Z" fill="#FFFFFE"/>
</g>
<defs>
<clipPath id="clip0_2094_328">
<rect width="82" height="20" fill="white"/>
</clipPath>
</defs>
</svg>
