<svg width="16" height="16" viewBox="0 0 16 16" fill="none" xmlns="http://www.w3.org/2000/svg">
<g clip-path="url(#clip0_2094_291)">
<path d="M14.9435 12.6638L11.2896 9.03301C11.8112 8.18679 12.1275 7.20076 12.1275 6.13457C12.1275 3.04439 9.60475 0.538086 6.49537 0.538086C3.38553 0.538086 0.863281 3.04439 0.863281 6.13457C0.863281 9.2243 3.38553 11.7311 6.49537 11.7311C7.56834 11.7311 8.56065 11.4168 9.41225 10.9003L13.0661 14.5293C13.3228 14.7843 13.7482 14.7825 14.0048 14.5293L14.9435 13.5966C15.2002 13.3415 15.2002 12.9189 14.9435 12.6638ZM6.49537 9.86556C4.42184 9.86556 2.74064 8.195 2.74064 6.13457C2.74064 4.07415 4.42184 2.40358 6.49537 2.40358C8.5689 2.40358 10.2501 4.07415 10.2501 6.13457C10.2501 8.195 8.5689 9.86556 6.49537 9.86556Z" fill="#545454"/>
</g>
<defs>
<clipPath id="clip0_2094_291">
<rect width="15" height="15" fill="white" transform="translate(0.5 0.219971)"/>
</clipPath>
</defs>
</svg>
